<?xml version="1.0" encoding="utf-8"?>
<!-- Generator: Adobe Illustrator 21.1.0, SVG Export Plug-In . SVG Version: 6.00 Build 0)  -->
<svg version="1.1" id="Слой_1" xmlns="http://www.w3.org/2000/svg" xmlns:xlink="http://www.w3.org/1999/xlink" x="0px" y="0px"
	 viewBox="0 0 259.7 114.2" style="enable-background:new 0 0 259.7 114.2;" xml:space="preserve">
<path d="M43.6,64.8H19.2l-4.3,9.9c-1.1,2.4-1.6,4.3-1.6,5.5c0,1,0.5,1.8,1.4,2.5c0.9,0.7,2.9,1.2,5.9,1.4v1.7H0.7v-1.7
	c2.6-0.5,4.3-1.1,5.1-1.8c1.6-1.5,3.3-4.5,5.3-9.1l22.2-51.9h1.6l21.9,52.4c1.8,4.2,3.4,6.9,4.8,8.2c1.4,1.3,3.4,2,6,2.1v1.7H42.8
	v-1.7c2.5-0.1,4.2-0.5,5.1-1.3s1.3-1.6,1.3-2.6c0-1.4-0.6-3.5-1.9-6.5L43.6,64.8z M42.3,61.4L31.6,35.9l-11,25.5H42.3z"/>
<path d="M86.4,19.8v56.5c0,2.7,0.2,4.4,0.6,5.3c0.4,0.9,1,1.5,1.8,2c0.8,0.5,2.3,0.7,4.5,0.7v1.7H72.4v-1.7c2,0,3.3-0.2,4-0.6
	s1.3-1.1,1.7-2c0.4-0.9,0.6-2.7,0.6-5.3V37.6c0-4.8-0.1-7.8-0.3-8.9c-0.2-1.1-0.6-1.9-1-2.3c-0.5-0.4-1.1-0.6-1.8-0.6
	c-0.8,0-1.8,0.2-3.1,0.7L71.6,25l12.7-5.2H86.4z"/>
<path d="M112.8,19.8v56.5c0,2.7,0.2,4.4,0.6,5.3c0.4,0.9,1,1.5,1.8,2c0.8,0.5,2.3,0.7,4.5,0.7v1.7H98.8v-1.7c2,0,3.3-0.2,4-0.6
	s1.3-1.1,1.7-2c0.4-0.9,0.6-2.7,0.6-5.3V37.6c0-4.8-0.1-7.8-0.3-8.9c-0.2-1.1-0.6-1.9-1-2.3c-0.5-0.4-1.1-0.6-1.8-0.6
	c-0.8,0-1.8,0.2-3.1,0.7L98,25l12.7-5.2H112.8z"/>
<path d="M139,44.3h-11.5l-2.6,7.1h-2.3l9.6-25.4h2l9.6,25.4h-2.2L139,44.3z M128.2,42.5h10.2l-5.1-13.8L128.2,42.5z"/>
<path d="M166.6,51.5h-2.1l-14.6-21.7v21.7h-2.2V26.1h2.2l14.6,21.8V26.1h2.1V51.5z"/>
<path d="M178.7,38.9l-3.6,3.5v9.1H173V26.1h2.1v13.7l13-13.7h2.7l-10.6,11.3l11.5,14.1h-2.6L178.7,38.9z"/>
<path d="M209.3,44.3h-11.5l-2.6,7.1h-2.3l9.6-25.4h2l9.6,25.4h-2.2L209.3,44.3z M198.4,42.5h10.2l-5.1-13.8L198.4,42.5z"/>
<path d="M227.4,40.9H220v10.6h-2.2V26.1h8.3c2.7,0,4.8,0.7,6.4,2c1.5,1.3,2.3,3.1,2.3,5.5c0,1.6-0.5,3.1-1.4,4.3
	c-1,1.2-2.2,2.1-3.8,2.6l6.4,10.8v0.2h-2.3L227.4,40.9z M220,39.1h6.6c1.8,0,3.3-0.5,4.3-1.5c1.1-1,1.6-2.4,1.6-4
	c0-1.8-0.6-3.2-1.7-4.2s-2.7-1.5-4.8-1.5H220V39.1z"/>
<path d="M254.3,44.3h-11.5l-2.6,7.1h-2.3l9.6-25.4h2l9.6,25.4h-2.2L254.3,44.3z M243.4,42.5h10.2l-5.1-13.8L243.4,42.5z"/>
<path d="M139.4,72h-11.9v10.4h13.7v1.8h-15.8V58.8h15.7v1.8h-13.6v9.6h11.9V72z"/>
<path d="M160,78c0-1.4-0.5-2.5-1.5-3.3c-1-0.8-2.8-1.6-5.4-2.3c-2.6-0.7-4.5-1.5-5.8-2.4c-1.7-1.2-2.6-2.8-2.6-4.9
	c0-1.9,0.8-3.5,2.4-4.7c1.6-1.2,3.6-1.8,6.1-1.8c1.7,0,3.2,0.3,4.5,1c1.3,0.7,2.4,1.6,3.1,2.7c0.7,1.2,1.1,2.5,1.1,3.9h-2.2
	c0-1.7-0.6-3.1-1.8-4.2c-1.2-1.1-2.8-1.6-4.8-1.6c-1.9,0-3.5,0.4-4.6,1.3c-1.2,0.9-1.7,2-1.7,3.4c0,1.3,0.5,2.3,1.6,3.2
	s2.7,1.5,5,2.2s4,1.3,5.2,1.9c1.2,0.7,2.1,1.5,2.7,2.4c0.6,0.9,0.9,2,0.9,3.3c0,2-0.8,3.6-2.4,4.8c-1.6,1.2-3.7,1.8-6.3,1.8
	c-1.8,0-3.4-0.3-4.9-1c-1.5-0.6-2.6-1.5-3.4-2.7c-0.8-1.2-1.2-2.5-1.2-4h2.1c0,1.8,0.7,3.2,2,4.2c1.3,1,3.1,1.6,5.3,1.6
	c2,0,3.6-0.4,4.8-1.3C159.4,80.6,160,79.4,160,78z"/>
<path d="M184.8,76.3c-0.3,2.7-1.2,4.7-2.9,6.1c-1.6,1.4-3.8,2.1-6.5,2.1c-1.9,0-3.6-0.5-5-1.4s-2.6-2.3-3.4-4
	c-0.8-1.7-1.2-3.7-1.2-5.9v-3.3c0-2.3,0.4-4.3,1.2-6c0.8-1.7,1.9-3.1,3.4-4c1.5-0.9,3.2-1.4,5.1-1.4c2.7,0,4.9,0.7,6.4,2.2
	c1.6,1.5,2.5,3.5,2.7,6.1h-2.2c-0.5-4.3-2.9-6.5-7-6.5c-2.3,0-4.1,0.9-5.5,2.6c-1.4,1.7-2,4.1-2,7.1v3.1c0,2.9,0.7,5.3,2,7
	s3.1,2.6,5.4,2.6c2.2,0,3.9-0.5,5.1-1.6c1.1-1.1,1.8-2.7,2.1-4.8H184.8z"/>
<path d="M208.8,72.9c0,2.3-0.4,4.4-1.2,6.2c-0.8,1.8-2,3.1-3.5,4.1c-1.5,1-3.2,1.4-5.2,1.4c-3,0-5.4-1.1-7.2-3.2s-2.7-5-2.7-8.6
	v-2.6c0-2.3,0.4-4.4,1.2-6.1c0.8-1.8,2-3.2,3.5-4.1c1.5-1,3.2-1.4,5.2-1.4c2,0,3.7,0.5,5.2,1.4c1.5,0.9,2.6,2.3,3.5,4
	c0.8,1.7,1.2,3.7,1.3,6V72.9z M206.7,70.1c0-3.1-0.7-5.5-2.1-7.2c-1.4-1.7-3.3-2.6-5.7-2.6c-2.4,0-4.2,0.9-5.6,2.6
	c-1.4,1.7-2.1,4.2-2.1,7.3v2.7c0,3,0.7,5.4,2.1,7.2c1.4,1.8,3.3,2.6,5.7,2.6c2.4,0,4.3-0.9,5.7-2.6c1.4-1.7,2-4.2,2-7.3V70.1z"/>
<path d="M223.7,73.6h-7.4v10.6h-2.2V58.8h8.3c2.7,0,4.8,0.7,6.4,2c1.5,1.3,2.3,3.1,2.3,5.5c0,1.6-0.5,3.1-1.4,4.3
	c-1,1.2-2.2,2.1-3.8,2.6l6.4,10.8v0.2h-2.3L223.7,73.6z M216.3,71.8h6.6c1.8,0,3.3-0.5,4.3-1.5c1.1-1,1.6-2.4,1.6-4
	c0-1.8-0.6-3.2-1.7-4.2s-2.7-1.5-4.8-1.5h-6.1V71.8z"/>
<path d="M252.7,60.6H244v23.6h-2.1V60.6h-8.7v-1.8h19.5V60.6z"/>
</svg>
