<?xml version="1.0" encoding="utf-8"?>
<!-- Generator: Adobe Illustrator 21.1.0, SVG Export Plug-In . SVG Version: 6.00 Build 0)  -->
<svg version="1.1" id="Слой_1" xmlns="http://www.w3.org/2000/svg" xmlns:xlink="http://www.w3.org/1999/xlink" x="0px" y="0px"
	 viewBox="0 0 69 23.3" style="enable-background:new 0 0 69 23.3;" xml:space="preserve">
<g>
	<path d="M14.2,14.1H8.5l-1,2.3c-0.2,0.6-0.4,1-0.4,1.3c0,0.2,0.1,0.4,0.3,0.6c0.2,0.2,0.7,0.3,1.4,0.3v0.4H4.2v-0.4
		c0.6-0.1,1-0.3,1.2-0.4c0.4-0.4,0.8-1.1,1.2-2.1l5.2-12.2h0.4l5.2,12.3c0.4,1,0.8,1.6,1.1,1.9c0.3,0.3,0.8,0.5,1.4,0.5v0.4h-5.9
		v-0.4c0.6,0,1-0.1,1.2-0.3c0.2-0.2,0.3-0.4,0.3-0.6c0-0.3-0.1-0.8-0.4-1.5L14.2,14.1z M13.9,13.3l-2.5-6l-2.6,6H13.9z"/>
	<path d="M24.3,3.5v13.3c0,0.6,0,1,0.1,1.2c0.1,0.2,0.2,0.4,0.4,0.5c0.2,0.1,0.5,0.2,1.1,0.2v0.4H21v-0.4c0.5,0,0.8,0,0.9-0.1
		c0.2-0.1,0.3-0.3,0.4-0.5s0.1-0.6,0.1-1.3V7.7c0-1.1,0-1.8-0.1-2.1c-0.1-0.3-0.1-0.4-0.2-0.5C22.1,5,21.9,5,21.7,5
		C21.6,5,21.3,5,21,5.1l-0.2-0.4l3-1.2H24.3z"/>
	<path d="M30.5,3.5v13.3c0,0.6,0,1,0.1,1.2c0.1,0.2,0.2,0.4,0.4,0.5c0.2,0.1,0.5,0.2,1.1,0.2v0.4h-4.9v-0.4c0.5,0,0.8,0,0.9-0.1
		c0.2-0.1,0.3-0.3,0.4-0.5s0.1-0.6,0.1-1.3V7.7c0-1.1,0-1.8-0.1-2.1c-0.1-0.3-0.1-0.4-0.2-0.5C28.3,5,28.1,5,28,5
		c-0.2,0-0.4,0.1-0.7,0.2l-0.2-0.4l3-1.2H30.5z"/>
</g>
<g>
	<path d="M38,10.8h-2.6l-0.6,1.6h-0.5l2.1-5.7H37l2.1,5.7h-0.5L38,10.8z M35.6,10.4h2.3l-1.1-3.1L35.6,10.4z"/>
	<path d="M43.9,12.3h-0.5l-3.3-4.8v4.8h-0.5V6.7h0.5l3.3,4.9V6.7h0.5V12.3z"/>
	<path d="M46.3,9.5l-0.8,0.8v2H45V6.7h0.5v3.1l2.9-3.1H49l-2.4,2.5l2.6,3.1h-0.6L46.3,9.5z"/>
	<path d="M52.7,10.8h-2.6l-0.6,1.6h-0.5l2.1-5.7h0.5l2.1,5.7h-0.5L52.7,10.8z M50.3,10.4h2.3l-1.1-3.1L50.3,10.4z"/>
	<path d="M56.5,10h-1.6v2.4h-0.5V6.7h1.8c0.6,0,1.1,0.1,1.4,0.4c0.3,0.3,0.5,0.7,0.5,1.2c0,0.4-0.1,0.7-0.3,1
		c-0.2,0.3-0.5,0.5-0.9,0.6l1.4,2.4v0.1h-0.5L56.5,10z M54.8,9.6h1.5c0.4,0,0.7-0.1,1-0.3c0.2-0.2,0.4-0.5,0.4-0.9
		c0-0.4-0.1-0.7-0.4-0.9s-0.6-0.3-1.1-0.3h-1.3V9.6z"/>
	<path d="M62.1,10.8h-2.6L59,12.3h-0.5l2.1-5.7h0.5l2.1,5.7h-0.5L62.1,10.8z M59.7,10.4H62l-1.1-3.1L59.7,10.4z"/>
</g>
<g>
	<path d="M37.8,16.4h-2.6v2.3h3v0.4h-3.5v-5.7h3.5v0.4h-3V16h2.6V16.4z"/>
	<path d="M42.1,17.7c0-0.3-0.1-0.6-0.3-0.7s-0.6-0.4-1.2-0.5s-1-0.3-1.3-0.5c-0.4-0.3-0.6-0.6-0.6-1.1c0-0.4,0.2-0.8,0.5-1.1
		c0.4-0.3,0.8-0.4,1.4-0.4c0.4,0,0.7,0.1,1,0.2c0.3,0.1,0.5,0.3,0.7,0.6c0.2,0.3,0.2,0.5,0.2,0.9h-0.5c0-0.4-0.1-0.7-0.4-0.9
		c-0.3-0.2-0.6-0.4-1.1-0.4c-0.4,0-0.8,0.1-1,0.3s-0.4,0.4-0.4,0.8c0,0.3,0.1,0.5,0.3,0.7c0.2,0.2,0.6,0.3,1.1,0.5s0.9,0.3,1.2,0.4
		c0.3,0.1,0.5,0.3,0.6,0.5c0.1,0.2,0.2,0.5,0.2,0.7c0,0.4-0.2,0.8-0.5,1.1s-0.8,0.4-1.4,0.4c-0.4,0-0.8-0.1-1.1-0.2
		s-0.6-0.3-0.8-0.6c-0.2-0.3-0.3-0.6-0.3-0.9H39c0,0.4,0.1,0.7,0.4,0.9c0.3,0.2,0.7,0.3,1.2,0.3c0.4,0,0.8-0.1,1.1-0.3
		C42,18.3,42.1,18,42.1,17.7z"/>
	<path d="M47.3,17.3c-0.1,0.6-0.3,1.1-0.6,1.4c-0.4,0.3-0.8,0.5-1.4,0.5c-0.4,0-0.8-0.1-1.1-0.3c-0.3-0.2-0.6-0.5-0.7-0.9
		c-0.2-0.4-0.3-0.8-0.3-1.3v-0.7c0-0.5,0.1-0.9,0.3-1.3c0.2-0.4,0.4-0.7,0.8-0.9c0.3-0.2,0.7-0.3,1.1-0.3c0.6,0,1.1,0.2,1.4,0.5
		c0.4,0.3,0.6,0.8,0.6,1.4h-0.5c-0.1-1-0.6-1.4-1.6-1.4c-0.5,0-0.9,0.2-1.2,0.6c-0.3,0.4-0.5,0.9-0.5,1.6v0.7c0,0.7,0.1,1.2,0.4,1.6
		s0.7,0.6,1.2,0.6c0.5,0,0.9-0.1,1.1-0.4s0.4-0.6,0.5-1.1H47.3z"/>
	<path d="M52.4,16.6c0,0.5-0.1,1-0.3,1.4c-0.2,0.4-0.4,0.7-0.8,0.9c-0.3,0.2-0.7,0.3-1.2,0.3c-0.7,0-1.2-0.2-1.6-0.7
		S48,17.3,48,16.5v-0.6c0-0.5,0.1-1,0.3-1.4c0.2-0.4,0.4-0.7,0.8-0.9c0.3-0.2,0.7-0.3,1.2-0.3s0.8,0.1,1.2,0.3s0.6,0.5,0.8,0.9
		c0.2,0.4,0.3,0.8,0.3,1.3V16.6z M51.9,15.9c0-0.7-0.2-1.2-0.5-1.6c-0.3-0.4-0.7-0.6-1.3-0.6c-0.5,0-0.9,0.2-1.3,0.6
		s-0.5,0.9-0.5,1.6v0.6c0,0.7,0.2,1.2,0.5,1.6c0.3,0.4,0.7,0.6,1.3,0.6c0.5,0,1-0.2,1.3-0.6c0.3-0.4,0.5-0.9,0.5-1.6V15.9z"/>
	<path d="M55.4,16.7h-1.6v2.4h-0.5v-5.7h1.8c0.6,0,1.1,0.1,1.4,0.4c0.3,0.3,0.5,0.7,0.5,1.2c0,0.4-0.1,0.7-0.3,1
		c-0.2,0.3-0.5,0.5-0.9,0.6l1.4,2.4v0.1h-0.5L55.4,16.7z M53.7,16.3h1.5c0.4,0,0.7-0.1,1-0.3c0.2-0.2,0.4-0.5,0.4-0.9
		c0-0.4-0.1-0.7-0.4-0.9s-0.6-0.3-1.1-0.3h-1.3V16.3z"/>
	<path d="M61.5,13.8h-1.9v5.3h-0.5v-5.3h-1.9v-0.4h4.4V13.8z"/>
</g>
</svg>
